<svg id="Layer_1" data-name="Layer 1" xmlns="http://www.w3.org/2000/svg" viewBox="0 0 21.28 10.57"><defs><style>.cls-1,.cls-2{fill:none;stroke:#3d6dfa;stroke-linejoin:round;stroke-width:2px;}.cls-1{stroke-linecap:round;}</style></defs><path id="Path_25" data-name="Path 25" class="cls-1" d="M309,512.68v2.14" transform="translate(-288.74 -508.47)"/><path id="Path_26" data-name="Path 26" class="cls-1" d="M294,514.82,293,512.68" transform="translate(-288.74 -508.47)"/><path id="Path_27" data-name="Path 27" class="cls-1" d="M298.31,514.82l-1.07-2.14" transform="translate(-288.74 -508.47)"/><path id="Path_28" data-name="Path 28" class="cls-2" d="M289.74,513.75c0-2,0-3,.62-3.66s1.64-.62,3.66-.62h7.5c2,0,3,0,3.66.62s.63,1.64.63,3.66h0c0,2,0,3-.63,3.66s-1.64.62-3.66.62H294c-2,0-3,0-3.66-.62S289.74,515.77,289.74,513.75Z" transform="translate(-288.74 -508.47)"/></svg>