<svg id="Layer_1" data-name="Layer 1" xmlns="http://www.w3.org/2000/svg" viewBox="0 0 10.72 11.99"><defs><style>.cls-1{fill:#fff;}.cls-1,.cls-2{stroke:#09244b;stroke-miterlimit:10;stroke-width:0.5px;}</style></defs><g id="dashboard-svgrepo-com"><path id="Path_34" data-name="Path 34" class="cls-1" d="M247.59,603.3h-1.78a1,1,0,0,0-1,1v3.07a1,1,0,0,0,1,1h1.78a1,1,0,0,0,1-1h0v-3.07A1,1,0,0,0,247.59,603.3Z" transform="translate(-244.54 -603.05)"/><path id="Path_35" data-name="Path 35" class="cls-2" d="M247.59,611h-1.78a1,1,0,0,0-1,1v1.79a1,1,0,0,0,1,1h1.78a1,1,0,0,0,1-1V612A1,1,0,0,0,247.59,611ZM254,603.3h-1.79a1,1,0,0,0-1,1v1.79a1,1,0,0,0,1,1H254a1,1,0,0,0,1-1v-1.79a1,1,0,0,0-1-1Z" transform="translate(-244.54 -603.05)"/><path id="Path_36" data-name="Path 36" class="cls-1" d="M254,609.69h-1.79a1,1,0,0,0-1,1v3.06a1,1,0,0,0,1,1H254a1,1,0,0,0,1-1v-3.06A1,1,0,0,0,254,609.69Z" transform="translate(-244.54 -603.05)"/></g></svg>