<svg id="Layer_1" data-name="Layer 1" xmlns="http://www.w3.org/2000/svg" viewBox="0 0 16.27 16.27"><defs><style>.cls-1{fill:#2ca9bc;}.cls-2{fill:none;stroke:#3d6dfa;stroke-linecap:round;stroke-linejoin:round;}</style></defs><g id="gps-location-svgrepo-com"><path id="secondary" class="cls-1" d="M141,538.31a1.7,1.7,0,1,0-3.39-.24,1,1,0,0,0,0,.24c0,1.7,1.7,3.39,1.7,3.39S141,540,141,538.31Z" transform="translate(-131.14 -531.02)"/><path id="primary" class="cls-2" d="M139.27,531.52v1.7m7.64,5.94h-1.7m-5.94,7.63v-1.7m-7.63-5.94h1.7m7.63-.85a1.7,1.7,0,1,0-3.39-.23v.23c0,1.7,1.7,3.4,1.7,3.4S141,540,141,538.3Zm-1.7-5.08a5.94,5.94,0,1,0,5.94,5.94h0A5.94,5.94,0,0,0,139.27,533.22Z" transform="translate(-131.14 -531.02)"/></g></svg>