<svg id="Layer_1" data-name="Layer 1" xmlns="http://www.w3.org/2000/svg" viewBox="0 0 17.38 17.43"><defs><style>.cls-1{fill:#3d6dfa;}</style></defs><g id="Layer_2" data-name="Layer 2"><g id="Layer_1-2" data-name="Layer 1"><path id="Path_29" data-name="Path 29" class="cls-1" d="M366.44,587.28a.52.52,0,0,0-.59.12l-3.25,3.26a.52.52,0,0,0-.17.42v6.52a.55.55,0,0,0,.55.54h3.25a.55.55,0,0,0,.55-.54v-9.78A.54.54,0,0,0,366.44,587.28Zm-.75,9.78h-2.18v-5.75l2.18-2.17Zm-6.1-3.17a1.07,1.07,0,0,0-1.19.22l-2.17,2.18a1.08,1.08,0,0,0,0,1.54,1.11,1.11,0,0,0,.75.32h2.17a1.09,1.09,0,0,0,1.09-1.09h0v-2.17A1.08,1.08,0,0,0,359.59,593.89Zm-.42,3.17H357l2.17-2.17ZM373,580.76a.52.52,0,0,0-.59.12l-3.26,3.26a.56.56,0,0,0-.16.43v13a.54.54,0,0,0,.54.54h3.26a.55.55,0,0,0,.55-.54V581.31A.55.55,0,0,0,373,580.76Zm-.75,16.3H370V584.79l2.17-2.17ZM359,582a.52.52,0,0,1,0,.74l0,0a.52.52,0,0,1-.73,0l0,0-.16-.15v5.2a.54.54,0,0,1-1.08,0v-5.2l-.17.15a.5.5,0,0,1-.38.17.52.52,0,0,1-.38-.17.51.51,0,0,1,0-.73l0,0,1.08-1.08a.37.37,0,0,1,.18-.17.58.58,0,0,1,.41,0,.3.3,0,0,1,.17.12Zm4.35,5.11-1.09,1.08a.4.4,0,0,1-.17.17.51.51,0,0,1-.42,0,.66.66,0,0,1-.17-.12l-1.09-1.09a.54.54,0,0,1,0-.76.53.53,0,0,1,.72,0l.17.11v-5.2a.54.54,0,1,1,1.08,0v5.2l.17-.15a.54.54,0,0,1,.76,0,.55.55,0,0,1,0,.72Z" transform="translate(-355.92 -580.72)"/></g></g></svg>