<svg id="Layer_1" data-name="Layer 1" xmlns="http://www.w3.org/2000/svg" viewBox="0 0 20.26 13.14"><defs><style>.cls-1{fill:#b0b0b0;}.cls-2{fill:#8b8b8b;}.cls-3{fill:#67b5f8;}.cls-4{fill:#3d6dfa;}.cls-5{fill:#f1f1f1;}.cls-6{fill:#d7d7d7;}.cls-7{fill:#f4da49;}.cls-8{fill:#e69824;}</style></defs><rect id="Rectangle_7" data-name="Rectangle 7" class="cls-1" x="0.66" y="6.48" width="2.2" height="1.32"/><rect id="Rectangle_8" data-name="Rectangle 8" class="cls-2" y="4.8" width="1.32" height="4.69"/><path id="Path_1" data-name="Path 1" class="cls-3" d="M130,409.29l-.19-.32h-3.39v1.57h-.33v-2.27h-1.76l-1.11-1h-1.84v-.9H122v-1.32h-4.69v1.32h.59v.9H116l-1.11,1h-2.19v7.88H116l2.32,2.05h7.8v-2.31h.34v1.57h3.38l.19-.32a8,8,0,0,0,.7-3.93A8.13,8.13,0,0,0,130,409.29Z" transform="translate(-110.49 -405.06)"/><path id="Path_2" data-name="Path 2" class="cls-4" d="M130,409.29l-.19-.32h-3.38v1.57h-.34v-2.27h-1.76l-1.11-1h-1.84v-.9H122v-1.32h-2.34V418.2h6.46v-2.31h.33v1.56h3.39l.19-.32a8.12,8.12,0,0,0,.7-3.92A8.26,8.26,0,0,0,130,409.29Z" transform="translate(-110.49 -405.06)"/><path id="Path_3" data-name="Path 3" class="cls-5" d="M129,416.14h-1.25v-1.57h-3v2.31h-6l-2.32-2.05H114v-5.24h1.37l1.11-1h2.74v-2.21h.86v2.21h2.66l1.12,1h.93v2.27h3v-1.57H129a11.38,11.38,0,0,1,0,5.85Z" transform="translate(-110.49 -405.06)"/><path id="Path_4" data-name="Path 4" class="cls-6" d="M129,416.14h-1.25v-1.57h-3v2.31h-5.14v-10.5h.43v2.22h2.66l1.11,1h.94v2.27h3v-1.57H129a11.16,11.16,0,0,1,0,5.85Z" transform="translate(-110.49 -405.06)"/><path id="Path_5" data-name="Path 5" class="cls-7" d="M120.27,416.17l-1.22-.49.9-2.24h-2.54l1.63-4.06,1.23.5-.9,2.24h2.53Z" transform="translate(-110.49 -405.06)"/><g id="Group_1" data-name="Group 1"><path id="Path_6" data-name="Path 6" class="cls-8" d="M120.27,409.88l-.61-.25v1.78Z" transform="translate(-110.49 -405.06)"/><path id="Path_7" data-name="Path 7" class="cls-8" d="M121.9,412.12h-2.24v1.32H120l-.29.73v1.76l.61.24Z" transform="translate(-110.49 -405.06)"/></g></svg>