<svg id="Layer_1" data-name="Layer 1" xmlns="http://www.w3.org/2000/svg" viewBox="0 0 13.85 13.85"><defs><style>.cls-1{fill:none;}.cls-2{fill:#09244b;fill-rule:evenodd;}</style></defs><g id="页面-1"><g id="Map"><g id="live_location_line" data-name="live location line"><path id="MingCute" class="cls-1" d="M124.07,598.33v13.85H110.22V598.33Zm-6.58,13.42h0l0,0h0l0,0h0V612h0l.06.05h0l.06-.05h0v-.24h0Zm.15-.06h0l-.11,0h0V612h0l.11,0h0l0-.35s0,0,0,0Zm-.41,0s0,0,0,0h0l0,.36h0l.12,0h0v-.25h0Z" transform="translate(-110.22 -598.33)"/><path id="形状" class="cls-2" d="M112,601.21a1.15,1.15,0,0,1,1.15-1.15h1.16a.58.58,0,1,1,0,1.15H113.1v1.16a.58.58,0,0,1-1.15,0Zm0,8.08a1.16,1.16,0,0,0,1.15,1.16h1.16a.58.58,0,1,0,0-1.16H113.1v-1.15a.58.58,0,1,0-1.15,0Zm9.23-9.23a1.15,1.15,0,0,1,1.16,1.15h0v1.16a.58.58,0,0,1-1.16,0v-1.16H120a.58.58,0,1,1,0-1.15Zm1.16,9.23a1.16,1.16,0,0,1-1.16,1.16H120a.58.58,0,0,1,0-1.16h1.15v-1.15a.58.58,0,0,1,1.16,0ZM120,603.15a.57.57,0,0,0-.75-.76l-5.72,2.45a.58.58,0,0,0-.3.76.56.56,0,0,0,.4.33l2.3.54.53,2.3a.57.57,0,0,0,.69.43.62.62,0,0,0,.41-.33Zm-3.46,2.27-.93-.21,2.76-1.19-1.18,2.77-.22-.93A.56.56,0,0,0,116.54,605.42Z" transform="translate(-110.22 -598.33)"/></g></g></g></svg>