<svg id="Layer_1" data-name="Layer 1" xmlns="http://www.w3.org/2000/svg" viewBox="0 0 16.55 14.09"><defs><style>.cls-1{fill:#09244b;}</style></defs><path id="menu-collapsed-svgrepo-com" class="cls-1" d="M339.33,658.16h-9.56a.9.9,0,0,1,0-1.8h9.56a.9.9,0,0,1,0,1.8Zm0-4.2h-9.56a.9.9,0,1,1,0-1.8h9.56a.9.9,0,0,1,0,1.8Zm-.06-4H324.63a.93.93,0,0,1-.95-.87.9.9,0,0,1,.87-.93h14.67a.93.93,0,0,1,.95.87.9.9,0,0,1-.87.93Zm-11.4,8.23v-6l-4.18,3Zm-3.28,2.26h14.63a.93.93,0,0,1,.95.87.91.91,0,0,1-.87.93H324.63a.93.93,0,0,1-.95-.87.9.9,0,0,1,.87-.93h0Z" transform="translate(-323.68 -648.12)"/></svg>