<svg id="Layer_1" data-name="Layer 1" xmlns="http://www.w3.org/2000/svg" viewBox="0 0 23.94 12.73"><defs><style>.cls-1{fill:#3d6dfa;}</style></defs><path id="Path_10" data-name="Path 10" class="cls-1" d="M250.39,512.73l-.07-.07-.07-.07a12,12,0,0,0-8.39-3.44h0a12,12,0,0,0-8.39,3.44l-.07.07s-.05,0-.06.07a11.93,11.93,0,0,0-3.45,8.39.76.76,0,0,0,.76.76h22.42a.76.76,0,0,0,.76-.76h0A12,12,0,0,0,250.39,512.73Zm-5.48,7.63h-.51a2.71,2.71,0,0,0-.81-1.24l.23-.46A3.17,3.17,0,0,1,244.91,520.36Zm-2.7-1.87a2.65,2.65,0,0,0-2.89,1.87h-.51a3.13,3.13,0,0,1,3.63-2.33Zm3.73,1.87a4.14,4.14,0,0,0-1.67-2.62l1.81-3.67a.76.76,0,0,0-.31-1,.75.75,0,0,0-1,.31l0,0-1.82,3.7a4.15,4.15,0,0,0-5.06,3c0,.1-.05.19-.07.28h-6.34a10.38,10.38,0,0,1,2.53-6.07l.51.51a.76.76,0,0,0,1.07-1.07l-.51-.51a10.44,10.44,0,0,1,6.07-2.53v.87a.76.76,0,0,0,1.52,0h0v-.87a10.44,10.44,0,0,1,6.07,2.53l-.52.51a.76.76,0,1,0,1.08,1.08l.51-.52a10.36,10.36,0,0,1,2.52,6.07Z" transform="translate(-229.89 -509.15)"/></svg>