<svg id="Layer_1" data-name="Layer 1" xmlns="http://www.w3.org/2000/svg" viewBox="0 0 19.51 19.51"><defs><style>.cls-1{fill:#3d6dfa;}</style></defs><g id="satellite-4-svgrepo-com"><path id="Path_17" data-name="Path 17" class="cls-1" d="M175,416.9a3.3,3.3,0,0,0-2.34,5.64l4.67-4.68A3.29,3.29,0,0,0,175,416.9Zm-1.83,1.47a2.57,2.57,0,0,1,3.07-.43l-3.51,3.51a2.61,2.61,0,0,1,.43-3.08Z" transform="translate(-162.76 -407.95)"/><path id="Path_18" data-name="Path 18" class="cls-1" d="M167.92,410.08l-3,3,5.56,5.56,3-3Zm-2,3,2-2,4.55,4.55-2,2Z" transform="translate(-162.76 -407.95)"/><path id="Path_19" data-name="Path 19" class="cls-1" d="M178.51,410.54l-2.6-2.59-4.65,4.65,2.59,2.59Zm-3.3,2.34-.6-.6,1-1,.6.6Zm2.34-2.34-.93.93-.6-.6.93-.93Zm-1.64-1.63.6.6-.92.93-.6-.6Zm-1.35,1.35.6.6-1,1-.6-.6Zm-2.34,2.34.93-.92.6.6-.93.92Zm2,.1.6.6-.93.93-.6-.6Z" transform="translate(-162.76 -407.95)"/><path id="Path_20" data-name="Path 20" class="cls-1" d="M162.76,421.1l2.59,2.59L170,419l-2.6-2.59Zm3.3-2.34.6.6-1,1-.6-.6Zm-2.34,2.34.93-.93.6.6-.93.93Zm1.63,1.63-.6-.6.93-.92.6.6Zm1.35-1.35-.6-.6,1-1,.6.6ZM169,419l-.92.93-.6-.6.92-.93Zm-1.95-.1-.6-.6.93-.93.6.6Z" transform="translate(-162.76 -407.95)"/><path id="Path_21" data-name="Path 21" class="cls-1" d="M176.61,420.85a.67.67,0,0,0-1,.94.68.68,0,0,0,1,0A.66.66,0,0,0,176.61,420.85Z" transform="translate(-162.76 -407.95)"/><path id="Path_22" data-name="Path 22" class="cls-1" d="M181.57,422.37a5.54,5.54,0,0,1-4.38,4.39l.13.7a6.23,6.23,0,0,0,5-4.95Z" transform="translate(-162.76 -407.95)"/><path id="Path_23" data-name="Path 23" class="cls-1" d="M180.53,422.13l-.7-.13a3.75,3.75,0,0,1-3,3l.12.7a4.45,4.45,0,0,0,3.59-3.59Z" transform="translate(-162.76 -407.95)"/><path id="Path_24" data-name="Path 24" class="cls-1" d="M178,423.23a2.71,2.71,0,0,0,.76-1.48l-.7-.11a2,2,0,0,1-.56,1.09h0a1.93,1.93,0,0,1-1.09.55l.12.7a2.67,2.67,0,0,0,1.47-.75Z" transform="translate(-162.76 -407.95)"/></g></svg>